<?xml version="1.0" encoding="utf-8"?>
<!-- Generator: Adobe Illustrator 16.0.3, SVG Export Plug-In . SVG Version: 6.00 Build 0)  -->
<!DOCTYPE svg PUBLIC "-//W3C//DTD SVG 1.1//EN" "http://www.w3.org/Graphics/SVG/1.1/DTD/svg11.dtd">
<svg version="1.1" id="Capa_1" xmlns="http://www.w3.org/2000/svg" xmlns:xlink="http://www.w3.org/1999/xlink" x="0px" y="0px"
	 width="100px" height="100px" viewBox="0 0 100 100" enable-background="new 0 0 100 100" xml:space="preserve">
<radialGradient id="SVGID_1_" cx="50.333" cy="92.6875" r="14.8746" gradientTransform="matrix(1 0 0 0.1 0 83.4187)" gradientUnits="userSpaceOnUse">
	<stop  offset="0.0159" style="stop-color:#000000"/>
	<stop  offset="0.0501" style="stop-color:#090909"/>
	<stop  offset="0.4002" style="stop-color:#646464"/>
	<stop  offset="0.6846" style="stop-color:#A7A7A7"/>
	<stop  offset="0.8896" style="stop-color:#D0D0D0"/>
	<stop  offset="0.9947" style="stop-color:#E0E0E0"/>
</radialGradient>
<ellipse fill="url(#SVGID_1_)" cx="50.333" cy="92.688" rx="20.935" ry="2.062"/>
<linearGradient id="SVGID_2_" gradientUnits="userSpaceOnUse" x1="19.375" y1="50" x2="80.625" y2="50">
	<stop  offset="0" style="stop-color:#E2E900"/>
	<stop  offset="0.1545" style="stop-color:#E1CB01"/>
	<stop  offset="0.4913" style="stop-color:#DF8002"/>
	<stop  offset="0.9823" style="stop-color:#DC0804"/>
	<stop  offset="1" style="stop-color:#DC0404"/>
</linearGradient>
<path fill="url(#SVGID_2_)" d="M50,11.25c-16.914,0-30.625,17.349-30.625,38.75c0,21.4,13.711,38.75,30.625,38.75
	S80.625,71.4,80.625,50C80.625,28.599,66.914,11.25,50,11.25z M50,81.244c-13.637,0-24.692-13.99-24.692-31.245
	S36.364,18.755,50,18.755c13.639,0,24.691,13.989,24.691,31.244S63.639,81.244,50,81.244z"/>
<g id="Capa_2">
	<g>
		<linearGradient id="SVGID_3_" gradientUnits="userSpaceOnUse" x1="18.542" y1="44.2705" x2="82.209" y2="44.2705">
			<stop  offset="0" style="stop-color:#E2E900"/>
			<stop  offset="0.1545" style="stop-color:#E1CB01"/>
			<stop  offset="0.4913" style="stop-color:#DF8002"/>
			<stop  offset="0.9823" style="stop-color:#DC0804"/>
			<stop  offset="1" style="stop-color:#DC0404"/>
		</linearGradient>
		<polygon fill="url(#SVGID_3_)" points="23.693,30.271 18.542,15.521 35.518,12.124 50.934,73.225 80.667,7.771 82.209,18.855 
			55.014,80.633 45.66,80.77 31.547,19.136 23.693,20.771 		"/>
	</g>
</g>
</svg>
